<?xml version="1.0" standalone="no"?>
<!DOCTYPE svg PUBLIC "-//W3C//DTD SVG 20010904//EN"
 "http://www.w3.org/TR/2001/REC-SVG-20010904/DTD/svg10.dtd">
<svg version="1.0" xmlns="http://www.w3.org/2000/svg"
 width="248.000000pt" height="118.000000pt" viewBox="0 0 248.000000 118.000000"
 preserveAspectRatio="xMidYMid meet">

<g transform="translate(0.000000,118.000000) scale(0.100000,-0.100000)"
fill="#000000" stroke="none">
<path d="M1849 1164 c-10 -12 -10 -20 -1 -35 16 -26 16 -27 -15 -31 -43 -5
-75 -61 -71 -123 3 -27 8 -58 12 -67 7 -16 0 -18 -76 -18 -97 0 -193 -15 -225
-36 -13 -8 -25 -29 -29 -49 -5 -29 -8 -33 -18 -21 -6 8 -27 24 -46 35 -44 26
-139 28 -225 5 -33 -8 -76 -18 -95 -20 -19 -3 -50 -9 -69 -14 -23 -6 -41 -6
-54 2 -15 8 -39 7 -90 -2 -79 -14 -81 -16 -143 -161 -21 -49 -41 -89 -44 -89
-3 0 -21 37 -39 81 -43 105 -59 121 -111 113 l-40 -7 0 62 c0 34 -7 77 -14 96
-13 29 -20 35 -46 35 -53 0 -328 -70 -352 -90 -23 -18 -23 -22 -20 -197 6
-318 18 -527 33 -558 21 -44 57 -43 222 5 248 73 251 74 265 104 14 28 14 28
29 7 11 -17 25 -21 66 -21 64 0 92 18 114 73 l17 41 10 -45 c11 -43 12 -44 54
-47 24 -2 67 3 95 11 29 9 77 20 107 26 30 7 61 17 70 25 8 7 48 18 88 24 41
6 76 13 80 16 3 4 8 25 11 49 l6 42 46 -42 c25 -24 59 -45 75 -48 16 -3 94 -1
174 6 159 13 235 14 323 4 80 -9 112 5 130 58 l14 42 18 -48 c34 -89 45 -97
135 -97 l79 0 12 42 c6 23 24 103 40 178 16 74 45 190 64 257 19 67 35 128 35
136 0 20 -38 34 -111 42 -87 9 -97 0 -124 -111 l-22 -89 -23 70 c-30 93 -42
105 -102 105 -45 0 -48 1 -38 19 19 37 12 100 -15 127 -14 14 -25 35 -25 47 0
64 -105 124 -141 81z m95 -47 c14 -17 17 -32 12 -64 -6 -45 6 -62 28 -44 10 9
15 8 20 -5 41 -108 -112 -184 -188 -93 -31 36 -34 85 -9 132 l18 32 3 -29 4
-29 19 29 c10 16 24 37 31 46 10 15 10 22 0 39 -13 21 -12 21 15 15 15 -4 36
-17 47 -29z m-1530 -258 c3 -17 6 -53 6 -80 0 -54 8 -49 -110 -72 l-65 -13 -3
-38 -3 -37 46 6 46 7 -3 -78 -3 -79 -44 -9 -44 -9 6 -75 c3 -41 8 -76 10 -78
5 -6 139 26 149 35 3 3 10 82 15 174 10 185 10 187 76 187 34 0 39 -3 56 -42
75 -167 103 -220 111 -212 5 5 30 59 55 119 79 184 77 182 136 194 29 6 54 9
57 6 3 -2 8 -87 13 -187 4 -101 11 -213 14 -250 l7 -67 -29 -6 c-78 -17 -70
-25 -82 88 -21 181 -20 181 -77 28 -43 -119 -53 -136 -77 -144 -15 -5 -34 -6
-42 -3 -8 3 -34 44 -57 91 -23 47 -45 85 -49 85 -7 0 -19 -102 -19 -161 0 -37
-2 -39 -42 -49 -24 -6 -90 -25 -148 -42 -207 -60 -199 -59 -211 -36 -12 22
-42 660 -33 690 3 12 37 24 122 43 64 15 131 30 147 35 53 15 62 12 69 -21z
m1980 13 c3 -5 -8 -53 -24 -108 -16 -54 -48 -178 -70 -274 -23 -96 -42 -175
-44 -177 -1 -1 -25 0 -53 3 l-50 6 -48 135 c-27 73 -51 130 -55 126 -4 -4 -17
-56 -30 -115 l-23 -108 -49 0 -50 0 7 53 c8 62 60 321 78 392 13 50 13 50 58
53 29 2 50 -2 56 -10 6 -7 28 -71 49 -143 20 -71 40 -134 45 -139 4 -4 24 64
45 153 l38 161 58 0 c31 0 59 -4 62 -8z m-604 -24 c0 -12 -88 -181 -158 -303
-22 -38 -38 -73 -35 -77 2 -5 33 -8 69 -8 l65 0 -3 -47 -3 -48 -50 -7 c-27 -3
-94 -7 -149 -7 l-99 -1 -38 35 c-34 30 -127 85 -145 85 -3 0 -4 -29 -2 -65 l4
-65 -36 -6 c-19 -3 -45 -7 -57 -10 -20 -4 -21 0 -27 99 -16 280 -17 355 -8
361 21 13 160 29 195 22 20 -4 49 -20 67 -37 42 -42 42 -106 1 -171 l-29 -46
61 -41 c56 -39 61 -41 71 -24 6 9 40 71 75 136 l64 119 -64 -4 -64 -3 -3 48
c-2 36 1 49 13 53 56 22 285 32 285 12z m134 -24 c23 -9 20 -46 -23 -259 l-38
-190 -46 -3 c-46 -3 -47 -2 -47 25 0 27 37 255 61 370 9 48 12 52 42 56 18 2
33 5 34 5 1 1 8 -1 17 -4z m-842 -106 c2 -65 -3 -422 -6 -425 -3 -3 -96 -21
-97 -19 -6 14 -15 446 -9 462 9 22 28 30 83 33 26 1 27 -1 29 -51z"/>
<path d="M1230 650 c0 -67 9 -73 46 -33 49 53 42 93 -18 93 -27 0 -28 -1 -28
-60z"/>
</g>
</svg>
